<?xml version="1.0" encoding="UTF-8"?>
<svg width="131px" height="199px" viewBox="0 0 131 199" version="1.1" xmlns="http://www.w3.org/2000/svg" xmlns:xlink="http://www.w3.org/1999/xlink" style="background: #FFFFFF;">
    <!-- Generator: Sketch 51.2 (57519) - http://www.bohemiancoding.com/sketch -->
    <title>EOSLogoK</title>
    <desc>Created with Sketch.</desc>
    <defs>
        <linearGradient x1="96.1398945%" y1="29.4080473%" x2="52.0903184%" y2="100%" id="linearGradient-1">
            <stop stop-color="#EE7795" offset="0%"></stop>
            <stop stop-color="#EF8876" offset="100%"></stop>
        </linearGradient>
    </defs>
    <g id="Page-1" stroke="none" stroke-width="1" fill="none" fill-rule="evenodd">
        <g id="Logo">
            <circle id="Oval-2" fill="url(#linearGradient-1)" fill-rule="nonzero" cx="114" cy="113" r="2"></circle>
            <circle id="Oval-2-Copy-7" fill-opacity="0.1" fill="url(#linearGradient-1)" fill-rule="nonzero" cx="117" cy="96" r="1"></circle>
            <circle id="Oval-2-Copy" fill="url(#linearGradient-1)" fill-rule="nonzero" cx="104" cy="94" r="2"></circle>
            <circle id="Oval-2-Copy-2" fill="url(#linearGradient-1)" fill-rule="nonzero" cx="110.5" cy="72.5" r="1.5"></circle>
            <circle id="Oval-2-Copy-36" fill="url(#linearGradient-1)" fill-rule="nonzero" cx="111.5" cy="85.5" r="1.5"></circle>
            <circle id="Oval-2-Copy-5" fill-opacity="0.5" fill="url(#linearGradient-1)" fill-rule="nonzero" cx="102" cy="62" r="2"></circle>
            <circle id="Oval-2-Copy-6" fill-opacity="0.5" fill="url(#linearGradient-1)" fill-rule="nonzero" cx="96" cy="44" r="2"></circle>
            <circle id="Oval-2-Copy-37" fill-opacity="0.5" fill="url(#linearGradient-1)" fill-rule="nonzero" cx="95" cy="72" r="2"></circle>
            <circle id="Oval-2-Copy-22" fill-opacity="0.3" fill="url(#linearGradient-1)" fill-rule="nonzero" cx="48" cy="62" r="2"></circle>
            <circle id="Oval-2-Copy-18" fill-opacity="0.5" fill="url(#linearGradient-1)" fill-rule="nonzero" cx="90.5" cy="35.5" r="1.5"></circle>
            <circle id="Oval-2-Copy-23" fill-opacity="0.5" fill="url(#linearGradient-1)" fill-rule="nonzero" cx="87" cy="20" r="2"></circle>
            <circle id="Oval-2-Copy-30" fill-opacity="0.5" fill="url(#linearGradient-1)" fill-rule="nonzero" cx="98" cy="3" r="2"></circle>
            <circle id="Oval-2-Copy-3" fill-opacity="0.3" fill="url(#linearGradient-1)" fill-rule="nonzero" cx="98.5" cy="49.5" r="1.5"></circle>
            <circle id="Oval-2-Copy-4" fill="url(#linearGradient-1)" fill-rule="nonzero" cx="89" cy="54" r="2"></circle>
            <circle id="Oval-2-Copy-35" fill="url(#linearGradient-1)" fill-rule="nonzero" cx="112" cy="94" r="2"></circle>
            <circle id="Oval-2-Copy-31" fill="url(#linearGradient-1)" fill-rule="nonzero" cx="100" cy="26" r="2"></circle>
            <circle id="Oval-2-Copy-21" fill="url(#linearGradient-1)" fill-rule="nonzero" cx="78.5" cy="81.5" r="1.5"></circle>
            <circle id="Oval-2-Copy-20" fill-opacity="0.3" fill="url(#linearGradient-1)" fill-rule="nonzero" cx="69" cy="63" r="2"></circle>
            <circle id="Oval-2-Copy-19" fill="url(#linearGradient-1)" fill-rule="nonzero" cx="72" cy="28" r="2"></circle>
            <circle id="Oval-2-Copy-26" fill="url(#linearGradient-1)" fill-rule="nonzero" cx="56" cy="10" r="2"></circle>
            <circle id="Oval-2-Copy-24" fill-opacity="0.1" fill="url(#linearGradient-1)" fill-rule="nonzero" cx="68" cy="18" r="2"></circle>
            <circle id="Oval-2-Copy-15" fill="url(#linearGradient-1)" fill-rule="nonzero" transform="translate(31.000000, 46.000000) rotate(-180.000000) translate(-31.000000, -46.000000) " cx="31" cy="46" r="1"></circle>
            <circle id="Oval-2-Copy-38" fill="url(#linearGradient-1)" fill-rule="nonzero" transform="translate(34.000000, 75.000000) rotate(-180.000000) translate(-34.000000, -75.000000) " cx="34" cy="75" r="1"></circle>
            <circle id="Oval-2-Copy-32" fill="url(#linearGradient-1)" fill-rule="nonzero" transform="translate(27.000000, 26.000000) rotate(-180.000000) translate(-27.000000, -26.000000) " cx="27" cy="26" r="1"></circle>
            <circle id="Oval-2-Copy-16" fill="url(#linearGradient-1)" fill-rule="nonzero" transform="translate(56.000000, 43.000000) rotate(-180.000000) translate(-56.000000, -43.000000) " cx="56" cy="43" r="2"></circle>
            <circle id="Oval-2-Copy-34" fill="url(#linearGradient-1)" fill-rule="nonzero" transform="translate(24.000000, 85.000000) rotate(-180.000000) translate(-24.000000, -85.000000) " cx="24" cy="85" r="2"></circle>
            <circle id="Oval-2-Copy-14" fill-opacity="0.5" fill="url(#linearGradient-1)" fill-rule="nonzero" transform="translate(21.000000, 69.000000) rotate(-180.000000) translate(-21.000000, -69.000000) " cx="21" cy="69" r="2"></circle>
            <circle id="Oval-2-Copy-40" fill-opacity="0.5" fill="url(#linearGradient-1)" fill-rule="nonzero" transform="translate(74.000000, 42.000000) rotate(-180.000000) translate(-74.000000, -42.000000) " cx="74" cy="42" r="2"></circle>
            <circle id="Oval-2-Copy-13" fill-opacity="0.3" fill="url(#linearGradient-1)" fill-rule="nonzero" transform="translate(46.000000, 41.000000) rotate(-180.000000) translate(-46.000000, -41.000000) " cx="46" cy="41" r="2"></circle>
            <circle id="Oval-2-Copy-39" fill-opacity="0.3" fill="url(#linearGradient-1)" fill-rule="nonzero" transform="translate(36.000000, 61.000000) rotate(-180.000000) translate(-36.000000, -61.000000) " cx="36" cy="61" r="2"></circle>
            <circle id="Oval-2-Copy-29" fill-opacity="0.3" fill="url(#linearGradient-1)" fill-rule="nonzero" transform="translate(35.000000, 10.000000) rotate(-180.000000) translate(-35.000000, -10.000000) " cx="35" cy="10" r="2"></circle>
            <circle id="Oval-2-Copy-27" fill-opacity="0.3" fill="url(#linearGradient-1)" fill-rule="nonzero" transform="translate(75.000000, 3.000000) rotate(-180.000000) translate(-75.000000, -3.000000) " cx="75" cy="3" r="2"></circle>
            <circle id="Oval-2-Copy-12" fill="url(#linearGradient-1)" fill-rule="nonzero" transform="translate(18.500000, 90.500000) rotate(-180.000000) translate(-18.500000, -90.500000) " cx="18.5" cy="90.5" r="1.5"></circle>
            <circle id="Oval-2-Copy-11" fill="url(#linearGradient-1)" fill-rule="nonzero" transform="translate(19.000000, 110.000000) rotate(-180.000000) translate(-19.000000, -110.000000) " cx="19" cy="110" r="2"></circle>
            <circle id="Oval-2-Copy-10" fill-opacity="0.1" fill="url(#linearGradient-1)" fill-rule="nonzero" transform="translate(30.000000, 84.000000) rotate(-180.000000) translate(-30.000000, -84.000000) " cx="30" cy="84" r="2"></circle>
            <circle id="Oval-2-Copy-9" fill="url(#linearGradient-1)" fill-rule="nonzero" transform="translate(25.000000, 61.000000) rotate(-180.000000) translate(-25.000000, -61.000000) " cx="25" cy="61" r="1"></circle>
            <circle id="Oval-2-Copy-25" fill-opacity="0.3" fill="url(#linearGradient-1)" fill-rule="nonzero" transform="translate(36.000000, 29.000000) rotate(-180.000000) translate(-36.000000, -29.000000) " cx="36" cy="29" r="1"></circle>
            <circle id="Oval-2-Copy-33" fill-opacity="0.3" fill="url(#linearGradient-1)" fill-rule="nonzero" transform="translate(41.000000, 3.000000) rotate(-180.000000) translate(-41.000000, -3.000000) " cx="41" cy="3" r="1"></circle>
            <circle id="Oval-2-Copy-28" fill-opacity="0.3" fill="url(#linearGradient-1)" fill-rule="nonzero" transform="translate(62.000000, 1.000000) rotate(-180.000000) translate(-62.000000, -1.000000) " cx="62" cy="1" r="1"></circle>
            <circle id="Oval-2-Copy-17" fill-opacity="0.3" fill="url(#linearGradient-1)" fill-rule="nonzero" transform="translate(50.000000, 28.000000) rotate(-180.000000) translate(-50.000000, -28.000000) " cx="50" cy="28" r="2"></circle>
            <circle id="Oval-2-Copy-8" fill="url(#linearGradient-1)" fill-rule="nonzero" transform="translate(50.000000, 112.000000) rotate(-180.000000) translate(-50.000000, -112.000000) " cx="50" cy="112" r="2"></circle>
            <circle id="Oval-Copy-4" fill="#362937" fill-rule="nonzero" cx="65.5" cy="133.5" r="65.5"></circle>
            <circle id="Oval-Copy-3" fill-opacity="0.5" fill="#EE7795" fill-rule="nonzero" cx="65" cy="133" r="53"></circle>
            <circle id="Oval-Copy-2" fill="url(#linearGradient-1)" fill-rule="nonzero" cx="65" cy="133" r="41"></circle>
            <text id="K" font-family="Arial-Black, Arial Black" font-size="72" font-weight="700" fill="#FFFFFF">
                <tspan x="33" y="159">K</tspan>
            </text>
        </g>
    </g>
</svg>